<svg width="512" height="512" viewBox="0 0 512 512" fill="none" xmlns="http://www.w3.org/2000/svg" role="img" aria-labelledby="title desc">
  <title id="title">73Hub App Icon</title>
  <desc id="desc">Rounded square icon with gradient background and stylized 73 mark.</desc>

  <defs>
    <linearGradient id="bgGradient" x1="64" y1="64" x2="448" y2="448" gradientUnits="userSpaceOnUse">
      <stop offset="0" stop-color="#0EA5E9"/>
      <stop offset="0.55" stop-color="#2563EB"/>
      <stop offset="1" stop-color="#1D4ED8"/>
    </linearGradient>

    <linearGradient id="markGradient" x1="132" y1="110" x2="390" y2="398" gradientUnits="userSpaceOnUse">
      <stop offset="0" stop-color="#FFFFFF"/>
      <stop offset="1" stop-color="#DBEAFE"/>
    </linearGradient>

    <filter id="softGlow" x="70" y="70" width="372" height="372" filterUnits="userSpaceOnUse" color-interpolation-filters="sRGB">
      <feFlood flood-opacity="0" result="BackgroundImageFix"/>
      <feBlend mode="normal" in="SourceGraphic" in2="BackgroundImageFix" result="shape"/>
      <feGaussianBlur stdDeviation="12" result="blur"/>
    </filter>
  </defs>

  <rect x="28" y="28" width="456" height="456" rx="108" fill="url(#bgGradient)"/>
  <rect x="44" y="44" width="424" height="424" rx="92" stroke="rgba(255,255,255,0.25)" stroke-width="6"/>

  <g filter="url(#softGlow)">
    <path d="M142 180C142 138.026 176.026 104 218 104H356V152H226C209.431 152 196 165.431 196 182C196 198.569 209.431 212 226 212H286V260H218C176.026 260 142 225.974 142 184V180Z" fill="url(#markGradient)"/>
    <path d="M372 236C372 276.869 339.869 310 299 310H236V264H291C307.016 264 320 251.016 320 235C320 218.984 307.016 206 291 206H248V158H299C339.869 158 372 191.131 372 232V236Z" fill="url(#markGradient)"/>
    <path d="M144 328H368V376H144V328Z" fill="url(#markGradient)"/>
  </g>

  <circle cx="372" cy="140" r="20" fill="#93C5FD" fill-opacity="0.85"/>
  <circle cx="140" cy="372" r="14" fill="#BFDBFE" fill-opacity="0.85"/>
</svg>
